{
  "accessors": [
    {
      "bufferView": 2,
      "componentType": 5126,
      "count": 831,
      "max": [
        0.7629915475845337,
        0.3266165852546692,
        1.1018391847610474
      ],
      "min": [
        0.24291248619556427,
        -0.2438838928937912,
        -3.343405246734619
      ],
      "type": "VEC3"
    },
    {
      "bufferView": 2,
      "byteOffset": 9972,
      "componentType": 5126,
      "count": 831,
      "max": [
        0.9999308586120605,
        0.9999721646308899,
        1.0
      ],
      "min": [
        -1.0,
        -0.9999671578407288,
        -0.6150540709495544
      ],
      "type": "VEC3"
    },
    {
      "bufferView": 1,
      "componentType": 5126,
      "count": 831,
      "max": [
        0.5401721596717834,
        0.9969185590744019
      ],
      "min": [
        0.027323005720973015,
        0.0019920477643609047
      ],
      "type": "VEC2"
    },
    {
      "bufferView": 0,
      "componentType": 5125,
      "count": 3996,
      "type": "SCALAR"
    },
    {
      "bufferView": 2,
      "byteOffset": 19944,
      "componentType": 5126,
      "count": 1787,
      "max": [
        0.7614489793777466,
        0.38451868295669556,
        -3.323652744293213
      ],
      "min": [
        0.4249817728996277,
        -0.39475172758102417,
        -4.647963047027588
      ],
      "type": "VEC3"
    },
    {
      "bufferView": 2,
      "byteOffset": 41388,
      "componentType": 5126,
      "count": 1787,
      "max": [
        0.9982678890228271,
        1.0,
        0.8326440453529358
      ],
      "min": [
        -0.9982011914253235,
        -0.9999532699584961,
        -0.9913728833198547
      ],
      "type": "VEC3"
    },
    {
      "bufferView": 1,
      "byteOffset": 6648,
      "componentType": 5126,
      "count": 1787,
      "max": [
        0.6045330762863159,
        0.9884727001190186
      ],
      "min": [
        0.0012066035997122526,
        0.0019919290207326412
      ],
      "type": "VEC2"
    },
    {
      "bufferView": 0,
      "byteOffset": 15984,
      "componentType": 5125,
      "count": 9216,
      "type": "SCALAR"
    },
    {
      "bufferView": 2,
      "byteOffset": 62832,
      "componentType": 5126,
      "count": 198,
      "max": [
        0.7651395201683044,
        0.29096031188964844,
        1.105878233909607
      ],
      "min": [
        0.5219310522079468,
        -0.20822760462760925,
        -3.25789737701416
      ],
      "type": "VEC3"
    },
    {
      "bufferView": 2,
      "byteOffset": 65208,
      "componentType": 5126,
      "count": 198,
      "max": [
        1.0,
        0.13672922551631927,
        0.9864451289176941
      ],
      "min": [
        -0.641986072063446,
        -0.1360393762588501,
        -0.03843249753117561
      ],
      "type": "VEC3"
    },
    {
      "bufferView": 1,
      "byteOffset": 20944,
      "componentType": 5126,
      "count": 198,
      "max": [
        0.5412114858627319,
        0.9980080723762512
      ],
      "min": [
        0.03349542245268822,
        0.017421601340174675
      ],
      "type": "VEC2"
    },
    {
      "bufferView": 0,
      "byteOffset": 52848,
      "componentType": 5125,
      "count": 948,
      "type": "SCALAR"
    },
    {
      "bufferView": 2,
      "byteOffset": 67584,
      "componentType": 5126,
      "count": 11703,
      "max": [
        0.8816229104995728,
        1.6728469133377075,
        4.557743549346924
      ],
      "min": [
        0.22206467390060425,
        -1.635622501373291,
        -4.381082057952881
      ],
      "type": "VEC3"
    },
    {
      "bufferView": 2,
      "byteOffset": 208020,
      "componentType": 5126,
      "count": 11703,
      "max": [
        1.0,
        1.0,
        1.0
      ],
      "min": [
        -1.0,
        -1.0,
        -1.0
      ],
      "type": "VEC3"
    },
    {
      "bufferView": 1,
      "byteOffset": 22528,
      "componentType": 5126,
      "count": 11703,
      "max": [
        1.0,
        1.0
      ],
      "min": [
        -0.9980800747871399,
        -0.8844587206840515
      ],
      "type": "VEC2"
    },
    {
      "bufferView": 0,
      "byteOffset": 56640,
      "componentType": 5125,
      "count": 49476,
      "type": "SCALAR"
    },
    {
      "bufferView": 2,
      "byteOffset": 348456,
      "componentType": 5126,
      "count": 3938,
      "max": [
        0.9728712439537048,
        0.8695391416549683,
        3.729114532470703
      ],
      "min": [
        0.6972934007644653,
        -1.3732852935791016,
        0.742233157157898
      ],
      "type": "VEC3"
    },
    {
      "bufferView": 2,
      "byteOffset": 395712,
      "componentType": 5126,
      "count": 3938,
      "max": [
        1.0,
        1.0,
        1.0
      ],
      "min": [
        -1.0,
        -1.0,
        -1.0
      ],
      "type": "VEC3"
    },
    {
      "bufferView": 1,
      "byteOffset": 116152,
      "componentType": 5126,
      "count": 3938,
      "max": [
        1.0,
        1.0
      ],
      "min": [
        0.0,
        -7.450580596923828e-08
      ],
      "type": "VEC2"
    },
    {
      "bufferView": 0,
      "byteOffset": 254544,
      "componentType": 5125,
      "count": 11298,
      "type": "SCALAR"
    },
    {
      "bufferView": 2,
      "byteOffset": 442968,
      "componentType": 5126,
      "count": 5644,
      "max": [
        0.9454156160354614,
        0.4852721691131592,
        3.309401273727417
      ],
      "min": [
        0.7009218335151672,
        -0.7852616310119629,
        1.117186188697815
      ],
      "type": "VEC3"
    },
    {
      "bufferView": 2,
      "byteOffset": 510696,
      "componentType": 5126,
      "count": 5644,
      "max": [
        1.0,
        1.0,
        1.0
      ],
      "min": [
        -1.0,
        -1.0,
        -1.0
      ],
      "type": "VEC3"
    },
    {
      "bufferView": 1,
      "byteOffset": 147656,
      "componentType": 5126,
      "count": 5644,
      "max": [
        1.0000001192092896,
        1.0
      ],
      "min": [
        0.0,
        -0.010145105421543121
      ],
      "type": "VEC2"
    },
    {
      "bufferView": 0,
      "byteOffset": 299736,
      "componentType": 5125,
      "count": 19644,
      "type": "SCALAR"
    },
    {
      "bufferView": 2,
      "byteOffset": 578424,
      "componentType": 5126,
      "count": 212,
      "max": [
        0.8615277409553528,
        0.4852721691131592,
        3.201059341430664
      ],
      "min": [
        0.6769367456436157,
        -0.42692962288856506,
        -4.26446533203125
      ],
      "type": "VEC3"
    },
    {
      "bufferView": 2,
      "byteOffset": 580968,
      "componentType": 5126,
      "count": 212,
      "max": [
        0.6952478289604187,
        0.7688075304031372,
        1.0
      ],
      "min": [
        -1.0,
        -0.7714842557907104,
        -1.0
      ],
      "type": "VEC3"
    },
    {
      "bufferView": 1,
      "byteOffset": 192808,
      "componentType": 5126,
      "count": 212,
      "max": [
        0.875,
        1.0
      ],
      "min": [
        0.125,
        0.0
      ],
      "type": "VEC2"
    },
    {
      "bufferView": 0,
      "byteOffset": 378312,
      "componentType": 5125,
      "count": 444,
      "type": "SCALAR"
    },
    {
      "bufferView": 2,
      "byteOffset": 583512,
      "componentType": 5126,
      "count": 1476,
      "max": [
        0.8289659023284912,
        0.3230571150779724,
        2.970101833343506
      ],
      "min": [
        0.788966953754425,
        -0.2018612176179886,
        2.8437509536743164
      ],
      "type": "VEC3"
    },
    {
      "bufferView": 2,
      "byteOffset": 601224,
      "componentType": 5126,
      "count": 1476,
      "max": [
        1.0,
        0.9999864101409912,
        0.999889612197876
      ],
      "min": [
        -1.0,
        -0.9998893737792969,
        -0.9998895525932312
      ],
      "type": "VEC3"
    },
    {
      "bufferView": 1,
      "byteOffset": 194504,
      "componentType": 5126,
      "count": 1476,
      "max": [
        0.65625,
        1.0
      ],
      "min": [
        0.3437499701976776,
        -7.450580596923828e-08
      ],
      "type": "VEC2"
    },
    {
      "bufferView": 0,
      "byteOffset": 380088,
      "componentType": 5125,
      "count": 4320,
      "type": "SCALAR"
    },
    {
      "bufferView": 2,
      "byteOffset": 618936,
      "componentType": 5126,
      "count": 3532,
      "max": [
        0.8433970808982849,
        -0.6752744913101196,
        3.7671494483947754
      ],
      "min": [
        0.5743959546089172,
        -1.4112813472747803,
        2.533254861831665
      ],
      "type": "VEC3"
    },
    {
      "bufferView": 2,
      "byteOffset": 661320,
      "componentType": 5126,
      "count": 3532,
      "max": [
        1.0,
        1.0,
        0.998993456363678
      ],
      "min": [
        -1.0,
        -1.0,
        -0.998993456363678
      ],
      "type": "VEC3"
    },
    {
      "bufferView": 1,
      "byteOffset": 206312,
      "componentType": 5126,
      "count": 3532,
      "max": [
        0.65625,
        0.999842643737793
      ],
      "min": [
        0.3443790674209595,
        0.0001574009656906128
      ],
      "type": "VEC2"
    },
    {
      "bufferView": 0,
      "byteOffset": 397368,
      "componentType": 5125,
      "count": 16800,
      "type": "SCALAR"
    },
    {
      "bufferView": 2,
      "byteOffset": 703704,
      "componentType": 5126,
      "count": 3461,
      "max": [
        0.8135878443717957,
        0.9564580917358398,
        1.0417882204055786
      ],
      "min": [
        0.6611690521240234,
        -0.2297281175851822,
        -2.881564140319824
      ],
      "type": "VEC3"
    },
    {
      "bufferView": 2,
      "byteOffset": 745236,
      "componentType": 5126,
      "count": 3461,
      "max": [
        1.0,
        0.9999805688858032,
        0.9999938607215881
      ],
      "min": [
        -1.0,
        -0.9999805092811584,
        -0.9999938607215881
      ],
      "type": "VEC3"
    },
    {
      "bufferView": 1,
      "byteOffset": 234568,
      "componentType": 5126,
      "count": 3461,
      "max": [
        0.875,
        1.0
      ],
      "min": [
        0.125,
        0.0
      ],
      "type": "VEC2"
    },
    {
      "bufferView": 0,
      "byteOffset": 464568,
      "componentType": 5125,
      "count": 12684,
      "type": "SCALAR"
    },
    {
      "bufferView": 2,
      "byteOffset": 786768,
      "componentType": 5126,
      "count": 579,
      "max": [
        0.6919206380844116,
        1.748887062072754,
        4.656534671783447
      ],
      "min": [
        0.25583845376968384,
        -1.711662769317627,
        0.16060209274291992
      ],
      "type": "VEC3"
    },
    {
      "bufferView": 2,
      "byteOffset": 793716,
      "componentType": 5126,
      "count": 579,
      "max": [
        0.531339704990387,
        0.9997800588607788,
        0.9997282028198242
      ],
      "min": [
        -0.5405741930007935,
        -0.9999434351921082,
        -0.9996951818466187
      ],
      "type": "VEC3"
    },
    {
      "bufferView": 1,
      "byteOffset": 262256,
      "componentType": 5126,
      "count": 579,
      "max": [
        0.8410637378692627,
        -0.0688970685005188
      ],
      "min": [
        0.23070788383483887,
        -0.8828502297401428
      ],
      "type": "VEC2"
    },
    {
      "bufferView": 0,
      "byteOffset": 515304,
      "componentType": 5125,
      "count": 2664,
      "type": "SCALAR"
    },
    {
      "bufferView": 2,
      "byteOffset": 800664,
      "componentType": 5126,
      "count": 111,
      "max": [
        0.22206470370292664,
        1.6484181880950928,
        4.533326148986816
      ],
      "min": [
        0.22206467390060425,
        -1.6111899614334106,
        0.283825159072876
      ],
      "type": "VEC3"
    },
    {
      "bufferView": 2,
      "byteOffset": 801996,
      "componentType": 5126,
      "count": 111,
      "max": [
        -1.0,
        1.9703545461879912e-08,
        -2.4925599362290995e-09
      ],
      "min": [
        -1.0,
        1.9703541909166233e-08,
        -2.4925606023629143e-09
      ],
      "type": "VEC3"
    },
    {
      "bufferView": 1,
      "byteOffset": 266888,
      "componentType": 5126,
      "count": 111,
      "max": [
        -0.019215313717722893,
        0.8959134817123413
      ],
      "min": [
        -0.9931690096855164,
        0.14866185188293457
      ],
      "type": "VEC2"
    },
    {
      "bufferView": 0,
      "byteOffset": 525960,
      "componentType": 5125,
      "count": 327,
      "type": "SCALAR"
    },
    {
      "bufferView": 2,
      "byteOffset": 803328,
      "componentType": 5126,
      "count": 111,
      "max": [
        0.7256944179534912,
        1.6484181880950928,
        4.533326148986816
      ],
      "min": [
        0.7256944179534912,
        -1.6111899614334106,
        0.283825159072876
      ],
      "type": "VEC3"
    },
    {
      "bufferView": 2,
      "byteOffset": 804660,
      "componentType": 5126,
      "count": 111,
      "max": [
        1.0,
        1.6293316917881384e-08,
        3.142905713460209e-09
      ],
      "min": [
        1.0,
        1.6293313365167705e-08,
        3.142905047326394e-09
      ],
      "type": "VEC3"
    },
    {
      "bufferView": 1,
      "byteOffset": 267776,
      "componentType": 5126,
      "count": 111,
      "max": [
        0.98711758852005,
        0.8753256797790527
      ],
      "min": [
        0.042367756366729736,
        0.1571979522705078
      ],
      "type": "VEC2"
    },
    {
      "bufferView": 0,
      "byteOffset": 527268,
      "componentType": 5125,
      "count": 327,
      "type": "SCALAR"
    }
  ],
  "asset": {
    "extras": {
      "author": "ironcladmax501 (https://sketchfab.com/IronCladMax501)",
      "license": "CC-BY-4.0 (http://creativecommons.org/licenses/by/4.0/)",
      "source": "https://sketchfab.com/3d-models/guitar-7ab6e59ba93b46bd8afa981fef92f114",
      "title": "Guitar"
    },
    "generator": "Sketchfab-12.68.0",
    "version": "2.0"
  },
  "bufferViews": [
    {
      "buffer": 0,
      "byteLength": 528576,
      "name": "floatBufferViews",
      "target": 34963
    },
    {
      "buffer": 0,
      "byteLength": 268664,
      "byteOffset": 528576,
      "byteStride": 8,
      "name": "floatBufferViews",
      "target": 34962
    },
    {
      "buffer": 0,
      "byteLength": 805992,
      "byteOffset": 797240,
      "byteStride": 12,
      "name": "floatBufferViews",
      "target": 34962
    }
  ],
  "buffers": [
    {
      "byteLength": 1603232,
      "uri": "scene.bin"
    }
  ],
  "images": [
    {
      "uri": "textures/Wood_2_baseColor.png"
    },
    {
      "uri": "textures/wood_baseColor.png"
    }
  ],
  "materials": [
    {
      "doubleSided": true,
      "name": "Neck",
      "pbrMetallicRoughness": {
        "baseColorFactor": [
          0.0,
          0.0,
          0.0,
          1.0
        ],
        "roughnessFactor": 0.35000000000000003
      }
    },
    {
      "doubleSided": true,
      "name": "Neck2",
      "pbrMetallicRoughness": {
        "baseColorFactor": [
          0.0,
          0.0,
          0.0,
          1.0
        ],
        "roughnessFactor": 0.35000000000000003
      }
    },
    {
      "doubleSided": true,
      "name": "neckFace",
      "pbrMetallicRoughness": {
        "baseColorFactor": [
          0.0,
          0.0,
          0.0,
          1.0
        ],
        "metallicFactor": 0.0,
        "roughnessFactor": 0.2
      }
    },
    {
      "doubleSided": true,
      "name": "SilverLace",
      "pbrMetallicRoughness": {
        "roughnessFactor": 0.42
      }
    },
    {
      "doubleSided": true,
      "name": "mattBlack",
      "pbrMetallicRoughness": {
        "baseColorFactor": [
          0.0,
          0.0,
          0.0,
          1.0
        ],
        "metallicFactor": 0.0,
        "roughnessFactor": 0.2
      }
    },
    {
      "doubleSided": true,
      "name": "sliver1",
      "pbrMetallicRoughness": {
        "roughnessFactor": 0.12
      }
    },
    {
      "doubleSided": true,
      "name": "lambert2",
      "pbrMetallicRoughness": {
        "metallicFactor": 0.0,
        "roughnessFactor": 0.2
      }
    },
    {
      "doubleSided": true,
      "name": "Bronze",
      "pbrMetallicRoughness": {
        "baseColorFactor": [
          0.512241594656483,
          0.2466546545861219,
          0.0002545832871648567,
          1.0
        ],
        "roughnessFactor": 0.2
      }
    },
    {
      "doubleSided": true,
      "name": "DirtyBronze",
      "pbrMetallicRoughness": {
        "baseColorFactor": [
          0.3921895658718546,
          0.33421497603383726,
          0.0006773733890636308,
          1.0
        ],
        "roughnessFactor": 0.25
      }
    },
    {
      "doubleSided": true,
      "name": "Chrome",
      "pbrMetallicRoughness": {
        "roughnessFactor": 0.14
      }
    },
    {
      "doubleSided": true,
      "name": "wood2",
      "pbrMetallicRoughness": {
        "baseColorFactor": [
          0.0,
          0.0,
          0.0,
          1.0
        ],
        "roughnessFactor": 0.35000000000000003
      }
    },
    {
      "doubleSided": true,
      "name": "Wood_2",
      "pbrMetallicRoughness": {
        "baseColorTexture": {
          "index": 0
        },
        "roughnessFactor": 0.35000000000000003
      }
    },
    {
      "doubleSided": true,
      "name": "wood",
      "pbrMetallicRoughness": {
        "baseColorTexture": {
          "index": 1
        },
        "roughnessFactor": 0.35000000000000003
      }
    }
  ],
  "meshes": [
    {
      "name": "pCube64_Neck_0",
      "primitives": [
        {
          "attributes": {
            "NORMAL": 1,
            "POSITION": 0,
            "TEXCOORD_0": 2
          },
          "indices": 3,
          "material": 0,
          "mode": 4
        }
      ]
    },
    {
      "name": "pCube64_Neck2_0",
      "primitives": [
        {
          "attributes": {
            "NORMAL": 5,
            "POSITION": 4,
            "TEXCOORD_0": 6
          },
          "indices": 7,
          "material": 1,
          "mode": 4
        }
      ]
    },
    {
      "name": "pCube64_neckFace_0",
      "primitives": [
        {
          "attributes": {
            "NORMAL": 9,
            "POSITION": 8,
            "TEXCOORD_0": 10
          },
          "indices": 11,
          "material": 2,
          "mode": 4
        }
      ]
    },
    {
      "name": "pCube64_SilverLace_0",
      "primitives": [
        {
          "attributes": {
            "NORMAL": 13,
            "POSITION": 12,
            "TEXCOORD_0": 14
          },
          "indices": 15,
          "material": 3,
          "mode": 4
        }
      ]
    },
    {
      "name": "pCube64_mattBlack_0",
      "primitives": [
        {
          "attributes": {
            "NORMAL": 17,
            "POSITION": 16,
            "TEXCOORD_0": 18
          },
          "indices": 19,
          "material": 4,
          "mode": 4
        }
      ]
    },
    {
      "name": "pCube64_sliver1_0",
      "primitives": [
        {
          "attributes": {
            "NORMAL": 21,
            "POSITION": 20,
            "TEXCOORD_0": 22
          },
          "indices": 23,
          "material": 5,
          "mode": 4
        }
      ]
    },
    {
      "name": "pCube64_lambert2_0",
      "primitives": [
        {
          "attributes": {
            "NORMAL": 25,
            "POSITION": 24,
            "TEXCOORD_0": 26
          },
          "indices": 27,
          "material": 6,
          "mode": 4
        }
      ]
    },
    {
      "name": "pCube64_Bronze_0",
      "primitives": [
        {
          "attributes": {
            "NORMAL": 29,
            "POSITION": 28,
            "TEXCOORD_0": 30
          },
          "indices": 31,
          "material": 7,
          "mode": 4
        }
      ]
    },
    {
      "name": "pCube64_DirtyBronze_0",
      "primitives": [
        {
          "attributes": {
            "NORMAL": 33,
            "POSITION": 32,
            "TEXCOORD_0": 34
          },
          "indices": 35,
          "material": 8,
          "mode": 4
        }
      ]
    },
    {
      "name": "pCube64_Chrome_0",
      "primitives": [
        {
          "attributes": {
            "NORMAL": 37,
            "POSITION": 36,
            "TEXCOORD_0": 38
          },
          "indices": 39,
          "material": 9,
          "mode": 4
        }
      ]
    },
    {
      "name": "pCube64_wood2_0",
      "primitives": [
        {
          "attributes": {
            "NORMAL": 41,
            "POSITION": 40,
            "TEXCOORD_0": 42
          },
          "indices": 43,
          "material": 10,
          "mode": 4
        }
      ]
    },
    {
      "name": "pCube64_Wood_2_0",
      "primitives": [
        {
          "attributes": {
            "NORMAL": 45,
            "POSITION": 44,
            "TEXCOORD_0": 46
          },
          "indices": 47,
          "material": 11,
          "mode": 4
        }
      ]
    },
    {
      "name": "pCube64_wood_0",
      "primitives": [
        {
          "attributes": {
            "NORMAL": 49,
            "POSITION": 48,
            "TEXCOORD_0": 50
          },
          "indices": 51,
          "material": 12,
          "mode": 4
        }
      ]
    }
  ],
  "nodes": [
    {
      "children": [
        1
      ],
      "matrix": [
        1.0,
        0.0,
        0.0,
        0.0,
        0.0,
        2.220446049250313e-16,
        -1.0,
        0.0,
        0.0,
        1.0,
        2.220446049250313e-16,
        0.0,
        0.0,
        0.0,
        0.0,
        1.0
      ],
      "name": "Sketchfab_model"
    },
    {
      "children": [
        2
      ],
      "matrix": [
        1.0,
        0.0,
        0.0,
        0.0,
        0.0,
        0.0,
        1.0,
        0.0,
        0.0,
        -1.0,
        0.0,
        0.0,
        0.0,
        0.0,
        0.0,
        1.0
      ],
      "name": "0c06d428df574c42a41034295e46a838.fbx"
    },
    {
      "children": [
        3
      ],
      "name": "RootNode"
    },
    {
      "children": [
        4,
        5,
        6,
        7,
        8,
        9,
        10,
        11,
        12,
        13,
        14,
        15,
        16
      ],
      "name": "pCube64"
    },
    {
      "mesh": 0,
      "name": "pCube64_Neck_0"
    },
    {
      "mesh": 1,
      "name": "pCube64_Neck2_0"
    },
    {
      "mesh": 2,
      "name": "pCube64_neckFace_0"
    },
    {
      "mesh": 3,
      "name": "pCube64_SilverLace_0"
    },
    {
      "mesh": 4,
      "name": "pCube64_mattBlack_0"
    },
    {
      "mesh": 5,
      "name": "pCube64_sliver1_0"
    },
    {
      "mesh": 6,
      "name": "pCube64_lambert2_0"
    },
    {
      "mesh": 7,
      "name": "pCube64_Bronze_0"
    },
    {
      "mesh": 8,
      "name": "pCube64_DirtyBronze_0"
    },
    {
      "mesh": 9,
      "name": "pCube64_Chrome_0"
    },
    {
      "mesh": 10,
      "name": "pCube64_wood2_0"
    },
    {
      "mesh": 11,
      "name": "pCube64_Wood_2_0"
    },
    {
      "mesh": 12,
      "name": "pCube64_wood_0"
    }
  ],
  "samplers": [
    {
      "magFilter": 9729,
      "minFilter": 9987,
      "wrapS": 10497,
      "wrapT": 10497
    }
  ],
  "scene": 0,
  "scenes": [
    {
      "name": "Sketchfab_Scene",
      "nodes": [
        0
      ]
    }
  ],
  "textures": [
    {
      "sampler": 0,
      "source": 0
    },
    {
      "sampler": 0,
      "source": 1
    }
  ]
}
